<?xml version="1.0" encoding="utf-8"?>
<!-- Generator: Adobe Illustrator 23.0.0, SVG Export Plug-In . SVG Version: 6.00 Build 0)  -->
<svg version="1.1" xmlns="http://www.w3.org/2000/svg" xmlns:xlink="http://www.w3.org/1999/xlink" x="0px" y="0px"
	 viewBox="0 0 519.65 168" style="enable-background:new 0 0 519.65 168;" xml:space="preserve">
<style type="text/css">
	.st0{display:none;}
	.st1{display:inline;fill:#FFFFFF;}
	.st2{fill:none;}
	.st3{fill:#222222;stroke:#222222;stroke-miterlimit:10;}
	.st4{font-family:'TwCenMT-Regular';}
	.st5{font-size:110px;}
	.st6{clip-path:url(#SVGID_2_);fill:url(#SVGID_3_);}
	.st7{opacity:0.39;clip-path:url(#SVGID_2_);}
	.st8{opacity:0.39;}
	.st9{clip-path:url(#SVGID_6_);fill:url(#SVGID_7_);}
	.st10{clip-path:url(#SVGID_2_);}
	.st11{clip-path:url(#SVGID_2_);fill:none;stroke:#3972B9;stroke-width:5;stroke-miterlimit:10;}
	.st12{clip-path:url(#SVGID_2_);fill:none;stroke:#FFFFFF;stroke-width:5;stroke-miterlimit:10;}
	.st13{display:none;clip-path:url(#SVGID_2_);fill:none;stroke:#B5B5DB;stroke-width:5;stroke-miterlimit:10;}
	.st14{display:none;clip-path:url(#SVGID_2_);fill:none;stroke:#B4C4E5;stroke-width:5;stroke-miterlimit:10;}
</style>
<g id="Layer_7" class="st0">
	<rect x="-84.78" y="-193.57" class="st1" width="841.89" height="542.35"/>
</g>
<g id="Layer_6">
	<rect x="190.83" y="48.64" class="st2" width="356.3" height="77.1"/>
	<text transform="matrix(1 0 0 1 190.8265 118.3797)" class="st3 st4 st5">QViz.io</text>
</g>
<g id="Layer_5" class="st0">
</g>
<g id="Layer_11">
	<g id="Layer_1_copy_1_">
		<g>
			<defs>
				<path id="SVGID_1_" d="M150.91,56.58l0,53.66c0,8.93-4.76,17.18-12.5,21.65l-46.47,26.83c-7.74,4.47-17.26,4.47-25,0
					l-46.47-26.83c-7.74-4.47-12.5-12.72-12.5-21.65l0-53.66c0-8.93,4.76-17.18,12.5-21.65L66.94,8.1c7.74-4.47,17.26-4.47,25,0
					l46.47,26.83C146.15,39.4,150.91,47.65,150.91,56.58z"/>
			</defs>
			<clipPath id="SVGID_2_">
				<use xlink:href="#SVGID_1_"  style="overflow:visible;"/>
			</clipPath>
			<linearGradient id="SVGID_3_" gradientUnits="userSpaceOnUse" x1="79.4376" y1="162.075" x2="79.4376" y2="4.7511">
				<stop  offset="0.3324" style="stop-color:#3A73B9"/>
				<stop  offset="0.8484" style="stop-color:#1AAEE5"/>
			</linearGradient>
			<path class="st6" d="M150.91,56.58l0,53.66c0,8.93-4.76,17.18-12.5,21.65l-46.47,26.83c-7.74,4.47-17.26,4.47-25,0l-45.61-26.33
				c-7.35-4.24-13.37-14.66-13.37-23.15l0-52.66c0-8.93,4.76-17.18,12.5-21.65L66.94,8.1c7.74-4.47,17.26-4.47,25,0l46.47,26.83
				C146.15,39.4,150.91,47.65,150.91,56.58z"/>
			<g class="st7">
				<defs>
					<path id="SVGID_4_" class="st8" d="M8.09,110.31l29.16-12.18c0.91-0.34,3.99-0.41,6.37,1.48l12.2,12.44
						c0.62,0.95,4.81,0.97,7.54,0.25l15.46-19.55c2.91-3.2,6.72-1.37,7.41-0.76l7.83,11.04c3.82,2.72,5.77-0.3,6.34-1.75
						l10.23-22.01c0.81-0.98,2.75-1.68,4.22-0.78l12.5,11.73c0.75,1.01,6.63,1.23,7.62,0.45l7.9-2.37c1.52-0.46,4.46-0.16,6.4,3.28
						l1.75,3.01c-0.08,0.6-0.11,8.31-0.11,8.98l-3.56,19.27c0,0.85-0.48,1.62-1.23,2l-66.34,35.69c-0.68,0.34-1.48,0.31-2.14-0.08
						l-56.71-30.19c-0.68-0.4-2.47-1.18-2.47-1.96L8.32,117.55C8.21,117.02,8.09,110.38,8.09,110.31z"/>
				</defs>
				<linearGradient id="SVGID_5_" gradientUnits="userSpaceOnUse" x1="88.9997" y1="159.0078" x2="75.8844" y2="84.6275">
					<stop  offset="0.2725" style="stop-color:#000000"/>
					<stop  offset="0.4085" style="stop-color:#C5C7C9;stop-opacity:0.7019"/>
					<stop  offset="0.455" style="stop-color:#FFFFFF;stop-opacity:0.6"/>
				</linearGradient>
				<use xlink:href="#SVGID_4_"  style="overflow:visible;fill:url(#SVGID_5_);"/>
				<clipPath id="SVGID_6_">
					<use xlink:href="#SVGID_4_"  style="overflow:visible;"/>
				</clipPath>
				<linearGradient id="SVGID_7_" gradientUnits="userSpaceOnUse" x1="90.9851" y1="161.0974" x2="63.7934" y2="6.8856">
					<stop  offset="0.2249" style="stop-color:#186E9A;stop-opacity:0.5"/>
					<stop  offset="0.2945" style="stop-color:#1C6F9B;stop-opacity:0.3473"/>
					<stop  offset="0.3196" style="stop-color:#28719D;stop-opacity:0.2923"/>
					<stop  offset="0.3375" style="stop-color:#3976A0;stop-opacity:0.2531"/>
					<stop  offset="0.352" style="stop-color:#4B7EA6;stop-opacity:0.2214"/>
					<stop  offset="0.3644" style="stop-color:#6088AD;stop-opacity:0.1943"/>
					<stop  offset="0.3754" style="stop-color:#7796B8;stop-opacity:0.1702"/>
					<stop  offset="0.3853" style="stop-color:#93A9C5;stop-opacity:0.1484"/>
					<stop  offset="0.3944" style="stop-color:#B5C3D6;stop-opacity:0.1285"/>
					<stop  offset="0.4025" style="stop-color:#DDE2EB;stop-opacity:0.1107"/>
					<stop  offset="0.4074" style="stop-color:#FFFFFF;stop-opacity:0.1"/>
				</linearGradient>
				<path class="st9" d="M150.91,52.88l0,61.07c0,6.64-3.54,12.78-9.29,16.09l-52.14,30.53c-5.75,3.32-23.24,3.32-28.99,0
					l-43.22-24.99C11.51,132.27,4,128.94,3.52,117.9L3.5,55.85c0-6.64,11.72-15.75,17.47-19.07L73.86,6.25
					c5.75-3.32,12.83-3.32,18.58,0l52.89,30.53C151.08,40.1,150.91,46.24,150.91,52.88z"/>
			</g>
			<g class="st10">
				<defs>
					<path id="SVGID_8_" d="M7.58,114.6L19.89,94c3.3-6.06,8.82-5.67,10.17-0.78c0,0,3.73,12.45,5.26,16.04
						c1.78,4.18,2.72,5.02,2.72,5.02c1.02,0.9,2.22,1.01,3.23,0.49l14.41-13.4c3.69-3.38,9.16-2.09,11.24,0.8
						c0,0,5.05,8.43,7.32,12.88c2.3,4.52,4.14,6.7,4.14,6.7c1.94,1.7,4.58,2.33,5.94-1.77c0,0,2.06-5.65,4.03-14
						c3.15-13.32,8.74-31.54,8.74-31.54c1.55-4.07,5.07-3.14,6.34-0.66c0,0,4.56,11.95,7.15,16.95c2.11,4.06,3.51,5.83,3.46,5.76
						c1.79,2.04,3.41,1.37,4.28,0.4l8.47-12.06c3.1-4.39,7.65-2.7,8.97-0.16l16.71,25.01c0.52,0.43,0.83-2.65,0.83-1.97v26.44
						c0,0.85-0.48,1.63-1.23,2.01l-71.54,35.94c-0.68,0.34-1.48,0.31-2.14-0.08L6.83,129.16c-0.68-0.4-1.09-1.14-1.09-1.93v-4.92
						C5.74,121.77,7.23,115.01,7.58,114.6z"/>
				</defs>
				<linearGradient id="SVGID_9_" gradientUnits="userSpaceOnUse" x1="83.3378" y1="172.0699" x2="76.4314" y2="73.3034">
					<stop  offset="0.0238" style="stop-color:#EE2D69"/>
					<stop  offset="0.7619" style="stop-color:#FCBF85"/>
					<stop  offset="0.9804" style="stop-color:#FCBF6E"/>
				</linearGradient>
				<use xlink:href="#SVGID_8_"  style="overflow:visible;fill:url(#SVGID_9_);"/>
				<clipPath id="SVGID_10_">
					<use xlink:href="#SVGID_8_"  style="overflow:visible;"/>
				</clipPath>
			</g>
			<circle class="st11" cx="26.55" cy="78.86" r="4.83"/>
			<circle class="st11" cx="61.6" cy="83.69" r="8.92"/>
			<circle class="st11" cx="99.64" cy="58.22" r="6.69"/>
			<circle class="st11" cx="130.13" cy="68.71" r="4.83"/>
			<line class="st11" x1="21.72" y1="78.86" x2="5.74" y2="87.39"/>
			<line class="st11" x1="31.38" y1="78.86" x2="52.68" y2="83.69"/>
			<line class="st11" x1="70.52" y1="83.69" x2="92.95" y2="58.22"/>
			<line class="st11" x1="105.96" y1="58.22" x2="125.3" y2="68.71"/>
			<line class="st11" x1="134.96" y1="68.71" x2="153.3" y2="53.74"/>
			<line class="st12" x1="21.72" y1="76.63" x2="5.74" y2="85.16"/>
			<line class="st12" x1="31.38" y1="76.63" x2="52.68" y2="81.46"/>
			<line class="st12" x1="70.52" y1="81.46" x2="92.95" y2="55.99"/>
			<line class="st12" x1="105.96" y1="55.99" x2="125.3" y2="66.48"/>
			<line class="st12" x1="134.96" y1="66.48" x2="153.3" y2="51.51"/>
			<circle class="st13" cx="26.55" cy="76.63" r="4.83"/>
			<circle class="st12" cx="26.55" cy="76.63" r="4.83"/>
			<circle class="st14" cx="61.6" cy="81.46" r="8.92"/>
			<circle class="st12" cx="61.6" cy="81.46" r="8.92"/>
			<circle class="st14" cx="99.64" cy="55.99" r="6.69"/>
			<circle class="st12" cx="99.64" cy="55.99" r="6.69"/>
			<circle class="st14" cx="130.13" cy="66.48" r="4.83"/>
			<circle class="st12" cx="130.13" cy="66.48" r="4.83"/>
		</g>
	</g>
</g>
</svg>
