<svg id="Layer_11" data-name="Layer 11" xmlns="http://www.w3.org/2000/svg" xmlns:xlink="http://www.w3.org/1999/xlink" viewBox="0 0 203.08 226.76"><defs><style>.cls-1,.cls-10,.cls-9{fill:none;}.cls-2{fill:url(#linear-gradient);}.cls-3{clip-path:url(#clip-path);}.cls-4{fill:url(#linear-gradient-2);}.cls-5{opacity:0.39;}.cls-6{clip-path:url(#clip-path-2);}.cls-7{fill:url(#linear-gradient-4);}.cls-8{fill:url(#linear-gradient-5);}.cls-9{stroke:#3972b9;}.cls-10,.cls-9{stroke-miterlimit:10;stroke-width:5px;}.cls-10{stroke:#fff;}</style><linearGradient id="linear-gradient" x1="396.42" y1="355.3" x2="378.77" y2="255.24" gradientUnits="userSpaceOnUse"><stop offset="0.27" stop-color="#231f20"/><stop offset="0.46" stop-color="#fff" stop-opacity="0.6"/></linearGradient><clipPath id="clip-path" transform="translate(-281.41 -146.46)"><path class="cls-1" d="M479.7,212.53v82.15a25,25,0,0,1-12.5,21.65l-71.15,41.08a25,25,0,0,1-25,0l-71.14-41.08a25,25,0,0,1-12.5-21.65V212.53a25,25,0,0,1,12.5-21.65l71.14-41.07a25,25,0,0,1,25,0l71.15,41.07A25,25,0,0,1,479.7,212.53Z"/></clipPath><linearGradient id="linear-gradient-2" x1="383.55" y1="360.76" x2="383.55" y2="146.46" gradientUnits="userSpaceOnUse"><stop offset="0.33" stop-color="#3a73b9"/><stop offset="0.85" stop-color="#1aaee5"/></linearGradient><clipPath id="clip-path-2" transform="translate(-281.41 -146.46)"><path class="cls-2" d="M287.58,289.78l39.23-16.38a10.36,10.36,0,0,1,8.56,2l16.41,16.74c.84,1.28,6.47,1.3,10.14.34l20.8-26.3c3.91-4.3,9-1.84,10-1L403.21,280c5.14,3.65,7.77-.4,8.52-2.35L425.5,248a4.65,4.65,0,0,1,5.67-1L448,262.78c1,1.36,8.92,1.65,10.25.61l10.62-3.19c2.05-.63,6-.22,8.62,4.41l2.36,4c-.1.81-.14,11.18-.14,12.09l-4.79,25.93a3,3,0,0,1-1.66,2.68l-89.23,48a3,3,0,0,1-2.87-.11l-76.29-40.61c-.91-.54-3.32-1.58-3.32-2.64l-13.66-14.48C287.74,298.81,287.57,289.88,287.58,289.78Z"/></clipPath><linearGradient id="linear-gradient-4" x1="399.09" y1="358.11" x2="362.51" y2="150.66" gradientUnits="userSpaceOnUse"><stop offset="0.22" stop-color="#186e9a" stop-opacity="0.5"/><stop offset="0.32" stop-color="#20739e" stop-opacity="0.49"/><stop offset="0.35" stop-color="#3f86ab" stop-opacity="0.43"/><stop offset="0.38" stop-color="#74a8c2" stop-opacity="0.34"/><stop offset="0.4" stop-color="#bfd7e3" stop-opacity="0.21"/><stop offset="0.41" stop-color="#fff" stop-opacity="0.1"/></linearGradient><linearGradient id="linear-gradient-5" x1="388.8" y1="372.87" x2="379.51" y2="240.01" gradientUnits="userSpaceOnUse"><stop offset="0.02" stop-color="#ee2d69"/><stop offset="0.76" stop-color="#fcbf85"/><stop offset="0.98" stop-color="#fcbf6e"/></linearGradient></defs><g id="Layer_1_copy" data-name="Layer 1 copy"><g class="cls-3"><path class="cls-4" d="M479.7,212.53v82.15a25,25,0,0,1-12.5,21.65l-71.15,41.08a25,25,0,0,1-25,0l-71.14-41.08c-7.74-4.46-12.5-13.72-12.5-22.65V212.53a25,25,0,0,1,12.5-21.65l71.14-41.07a25,25,0,0,1,25,0l71.15,41.07A25,25,0,0,1,479.7,212.53Z" transform="translate(-281.41 -146.46)"/><g class="cls-5"><path class="cls-2" d="M287.58,289.78l39.23-16.38a10.36,10.36,0,0,1,8.56,2l16.41,16.74c.84,1.28,6.47,1.3,10.14.34l20.8-26.3c3.91-4.3,9-1.84,10-1L403.21,280c5.14,3.65,7.77-.4,8.52-2.35L425.5,248a4.65,4.65,0,0,1,5.67-1L448,262.78c1,1.36,8.92,1.65,10.25.61l10.62-3.19c2.05-.63,6-.22,8.62,4.41l2.36,4c-.1.81-.14,11.18-.14,12.09l-4.79,25.93a3,3,0,0,1-1.66,2.68l-89.23,48a3,3,0,0,1-2.87-.11l-76.29-40.61c-.91-.54-3.32-1.58-3.32-2.64l-13.66-14.48C287.74,298.81,287.57,289.88,287.58,289.78Z" transform="translate(-281.41 -146.46)"/><g class="cls-6"><path class="cls-7" d="M479.7,212.53v82.15a25,25,0,0,1-12.5,21.65l-70.15,41.08c-7.73,4.46-31.26,4.46-39,0L299.91,323.8c-7.74-4.47-17.83-9-18.48-23.8l0-83.47c0-8.93,15.76-21.18,23.5-25.65l71.14-41.07a25,25,0,0,1,25,0l71.15,41.07C479.93,195.35,479.7,203.6,479.7,212.53Z" transform="translate(-281.41 -146.46)"/></g></g><path class="cls-8" d="M286.89,295.57l16.57-27.72c4.43-8.15,11.87-7.63,13.68-1.05,0,0,5,16.75,7.08,21.58,2.39,5.63,3.65,6.75,3.65,6.75a3.78,3.78,0,0,0,4.35.67l19.38-18c5-4.55,12.32-2.81,15.11,1.07,0,0,6.8,11.34,9.85,17.32a50.7,50.7,0,0,0,5.57,9c2.61,2.29,6.16,3.13,8-2.38A184.46,184.46,0,0,0,395.55,284c4.23-17.92,11.75-42.43,11.75-42.43,2.09-5.48,6.82-4.22,8.53-.89,0,0,6.13,16.07,9.62,22.8a51.56,51.56,0,0,0,4.66,7.74c2.41,2.74,4.59,1.85,5.76.55l11.39-16.23c4.17-5.9,10.28-3.62,12.07-.21l22.47,33.65c.7.57,1.11-3.56,1.11-2.65v35.57a3,3,0,0,1-1.66,2.7L385,372.9a3,3,0,0,1-2.87-.11l-96.27-57.65a3,3,0,0,1-1.46-2.6v-6.61C284.42,305.2,286.42,296.11,286.89,295.57Z" transform="translate(-281.41 -146.46)"/><circle class="cls-9" cx="31" cy="101.02" r="6.5"/><circle class="cls-9" cx="78.15" cy="107.52" r="12"/><circle class="cls-9" cx="129.32" cy="73.26" r="9"/><circle class="cls-9" cx="170.33" cy="87.37" r="6.5"/><line class="cls-9" x1="24.5" y1="101.02" x2="3.01" y2="112.5"/><line class="cls-9" x1="37.5" y1="101.02" x2="66.15" y2="107.52"/><line class="cls-9" x1="90.15" y1="107.52" x2="120.32" y2="73.26"/><line class="cls-9" x1="137.82" y1="73.26" x2="163.83" y2="87.37"/><line class="cls-9" x1="176.83" y1="87.37" x2="201.5" y2="67.24"/><line class="cls-10" x1="24.5" y1="98.02" x2="3.01" y2="109.5"/><line class="cls-10" x1="37.5" y1="98.02" x2="66.15" y2="104.52"/><line class="cls-10" x1="90.15" y1="104.52" x2="120.32" y2="70.26"/><line class="cls-10" x1="137.82" y1="70.26" x2="163.83" y2="84.37"/><line class="cls-10" x1="176.83" y1="84.37" x2="201.5" y2="64.24"/><circle class="cls-10" cx="31" cy="98.02" r="6.5"/><circle class="cls-10" cx="78.15" cy="104.52" r="12"/><circle class="cls-10" cx="129.32" cy="70.26" r="9"/><circle class="cls-10" cx="170.33" cy="84.37" r="6.5"/></g></g></svg>